<svg id="Capa_1" data-name="Capa 1" xmlns="http://www.w3.org/2000/svg" viewBox="0 0 993.5 689.7"><defs><style>.cls-1{font-size:200px;fill:red;font-family:GalileaSansPERSONALUSE-Bold, Galilea Sans PERSONAL USE;font-weight:700;}.cls-2{fill:#ffe000;}.cls-3{fill:#006837;}.cls-4{fill:#1a1a1a;}</style></defs><text class="cls-1" transform="translate(102.41 604.27)">Bo<tspan class="cls-2" x="206.4" y="0">li</tspan><tspan class="cls-3" x="303.59" y="0">via</tspan><tspan class="cls-4" x="547.99" y="0">jes</tspan></text><path class="cls-4" d="M612.71,398.58l16.87,1.48.82,1.41c-5,3.74-9.47,9-15.08,10.81-5.85,1.88-12.77.42-19.43,1.39l11.48,3.74c-3,3.84-5.52,7.43-8.45,10.66-.79.86-2.88,1-4.23.78-5.1-1-10.14-2.2-15.8-2.51l9.51,9.11L576.28,445.5l-7.35-6.26-.57.32c.85,1.68,1.7,3.35,2.69,5.32-2,2-4.27,3.7-5.94,5.9-8.72,11.51-5.48,28.1,7.9,35.57a196.88,196.88,0,0,0,32.76,14.75c28,9.45,56.23,18,84.37,26.9,1,.33,2,.79,4.41,1.74-6.08,3-10.95,5.89-16.16,7.87-8.84,3.37-17.72,7.07-26.93,8.88-5.33,1-11.58-.57-17-2.36-7.85-2.63-15.29-6.49-23.28-9.45l19.22,16.08.15,1.61c-6.87,1.73-13.85,3.09-20.57,5.27-9.42,3.06-16.4.35-21.66-7.73-.78-1.21-1.52-2.44-2.27-3.66l-1.4,1.16,6.76,12c-7.69,0-14.51.09-21.33-.12-.89,0-1.9-1.47-2.57-2.46-1.85-2.69-3.55-5.5-5.84-9.1-.41,2.47-1,4-.82,5.4.75,5.58-2.79,6.7-6.88,6.23-11.91-1.34-23.85-2.65-35.63-4.79-11.17-2-22.15-5.06-33.2-7.7a45.15,45.15,0,0,1-4.33-1.58c14.41-9.75,14.54-24.72,15.85-39.18.3-3.26.05-6.57.05-10.93l37.69,22.09.81-1c-4.4-3.44-8.41-7.63-13.27-10.19-20.23-10.69-40.4-21.58-61.22-31-15.46-7-31.81-12.14-47.93-17.62-3.73-1.26-8.14-.53-13.11-.76-2.88-4.55-1.87-10.05,3.65-13.87a19.72,19.72,0,0,1,4.57-2.49,29.85,29.85,0,0,0,10.49-6.61c3.33-3,8.48-4.95,13.05-5.5,10.76-1.29,20.78,3,31,5.76s20.35,5.81,30.7,7.85c15.71,3.11,26-6.35,23.86-22.25A94.75,94.75,0,0,0,510.33,395c-5.39-12.57-5.13-24.47,3.21-35,8.21-10.33,17.12-20.4,27.1-29,14.85-12.76,31-23.92,46.42-36.07,28.33-22.38,47.82-51.54,62.79-84,14.68-31.81,24.18-65.2,29.66-100.59.92,1.22,1.73,1.89,2,2.73,3.07,9.14,7.54,18.12,8.66,27.51,1.09,9.19-.22,19-2.28,28.16-4.54,20.2-10.22,40.13-15.42,60.18-.22.86-.3,1.77-.65,3.9,14-13.25,22.83-29,33.94-43.6a81.74,81.74,0,0,0,.05,9.13c2.17,19.35-4.21,36.5-13.31,53-5.2,9.4-10.5,18.74-16.32,29.11,12.41-5,20.5-14,29.33-22.45-2.86,11.64-5.17,23.45-8.86,34.81-1.4,4.29-5.62,7.94-9.2,11.17-9.4,8.45-19.16,16.51-28.77,24.73a9.21,9.21,0,0,0-2.82,3.51L685,321.58c-7.25,26-25.06,41.24-49.34,50.19.27.42.55.83.83,1.25l20.69-3.56c-11.36,16.08-24.62,27.6-45,27.92ZM420.53,440.64l-.24,1.2c1.66.4,3.59,1.5,4.88,1,1.48-.58,2.4-2.6,3.56-4l-1-.78Z" transform="translate(-25 -110.45)"/><path class="cls-4" d="M495.38,435.34l-8.75-1.4c-18.24-2.89-36.56-5.35-54.68-8.84-11.42-2.2-19.94-10-27.73-18.2-14.1-14.8-22.41-32.92-27.64-52.36-4.64-17.24-8.37-34.75-12.11-52.22-5-23.34-15.05-44.22-29.25-63.23-1-1.32-1.87-2.71-2.8-4.07l.83-1c7.74,5,15.7,9.71,23.17,15.1,35.2,25.45,61.39,57.88,76.76,99,10,26.77,24.1,51.25,44.5,71.61C482.91,424.89,488.74,429.49,495.38,435.34Z" transform="translate(-25 -110.45)"/></svg>